<svg width="80" height="81" viewBox="0 0 80 81" fill="none" xmlns="http://www.w3.org/2000/svg" id="logo">
<g clip-path="url(#clip0)">
<path d="M24.925 75.535C22.7848 74.7542 20.8392 73.5831 18.8936 72.4121C16.948 71.241 15.197 69.6795 13.4459 68.3133C10.1384 65.1904 7.21998 61.4819 5.07981 57.5783C4.107 55.6265 3.1342 53.4795 2.35596 51.3325C1.57771 49.1856 1.18859 46.8434 0.799469 44.6964C0.799469 42.159 0.799469 39.8169 0.799469 37.4747C0.799469 36.3036 0.99403 35.1325 0.99403 34.1566C1.18859 32.9856 1.38315 31.8145 1.57771 30.8386C1.77227 29.6675 2.1614 28.6916 2.35596 27.5205C2.74508 26.3494 3.1342 25.3735 3.52332 24.3976C4.30156 22.2506 5.46893 20.2988 6.63629 18.347C8.97103 14.4434 12.084 11.1253 15.5861 8.39279C19.0882 5.66025 23.174 3.51327 27.4543 2.147C28.4271 1.75664 29.5945 1.56146 30.7618 1.1711C31.9292 0.975917 32.902 0.780736 34.0694 0.585556C35.2367 0.390375 36.2095 0.390375 37.3769 0.195194C37.9606 0.195194 38.5443 0.195194 39.128 0.195194C39.3225 0.195194 39.7116 0.195194 39.9062 0.195194H40.6844C40.879 0.195194 41.0736 0.195194 41.4627 0.195194C22.3957 0.975917 7.41454 16.7856 7.41454 36.1084C7.41454 39.4265 7.80366 42.7446 8.77646 45.8675C8.97103 46.8434 9.36015 47.8193 9.55471 48.7952C10.1384 50.5518 10.9166 52.3084 11.8894 53.8699C13.6405 57.188 15.9752 60.1157 18.8936 62.4578C19.0882 62.653 19.4773 63.0434 19.6719 63.2386C20.8392 64.2145 22.0066 64.9952 23.174 65.7759C24.7305 66.7518 26.4815 67.5326 28.038 68.3133C29.2054 68.7036 30.5673 69.2892 31.7346 69.4843C32.902 69.094 34.0694 68.5084 35.6259 67.5325C42.6301 61.4819 53.72 68.8988 60.9188 64.9952C61.3079 64.8 61.697 64.6048 62.2807 64.8C62.6698 64.9952 63.2535 65.1904 63.0589 65.9711C63.0589 66.1663 63.0589 66.3615 63.0589 66.3615C61.697 72.0217 54.8874 72.0217 50.4125 71.4362C49.0506 71.241 48.0778 71.0458 47.2995 71.0458C45.9376 70.8506 44.9648 71.4362 45.1593 72.2169C45.1593 72.9976 46.1321 73.9735 48.4669 74.5591C64.6154 77.4868 74.3435 57.3831 78.6238 61.8723C80.3749 64.6048 59.7514 92.7109 24.925 75.535Z" fill="url(#paint0_linear)"/>
<path d="M70.4523 59.5302C73.9544 54.2603 75.9 47.8194 75.9 40.7929C75.9 22.4459 61.8916 7.61213 44.7702 7.61213C27.6489 7.61213 13.6405 22.4459 13.6405 40.7929C13.6405 47.8194 15.5861 54.2603 19.0882 59.5302C13.8351 53.2844 10.5275 45.282 10.5275 36.6941C10.5275 17.5663 25.8978 2.14707 44.7702 2.14707C63.6426 2.14707 79.013 17.5663 79.013 36.4989C79.013 45.282 75.9 53.2844 70.4523 59.5302Z" fill="url(#paint1_linear)"/>
<path d="M61.697 32.205H52.9418C51.969 32.205 51.1908 31.4243 51.1908 30.4484V21.8604C51.1908 20.8845 50.4125 20.1038 49.4397 20.1038H39.7117C38.7389 20.1038 37.9606 20.8845 37.9606 21.8604V30.4484C37.9606 31.4243 37.1824 32.205 36.2096 32.205H27.8435C26.8706 32.205 26.0924 32.9857 26.0924 33.9616V43.9159C26.0924 44.8918 26.8706 45.6725 27.8435 45.6725H36.2096C37.1824 45.6725 37.9606 46.4532 37.9606 47.4291V56.0171C37.9606 56.993 38.7389 57.7737 39.7117 57.7737C42.241 57.7737 47.105 57.7737 49.6343 57.7737C50.6071 57.7737 51.3853 56.993 51.3853 56.0171V47.4291C51.3853 46.4532 52.1636 45.6725 53.1364 45.6725H61.8916C62.8644 45.6725 63.6427 44.8918 63.6427 43.9159V33.9616C63.4481 32.7906 62.6698 32.205 61.697 32.205Z" fill="url(#paint2_linear)"/>
</g>
<defs>
<linearGradient id="paint0_linear" x1="11.105" y1="-6.44407" x2="55.4326" y2="87.9641" gradientUnits="userSpaceOnUse">
<stop offset="0.0195531" stop-color="#3FA1D5"/>
<stop offset="0.4839" stop-color="#31A666"/>
<stop offset="1" stop-color="#D8D70C"/>
</linearGradient>
<linearGradient id="paint1_linear" x1="10.5124" y1="30.8236" x2="79.0883" y2="30.8236" gradientUnits="userSpaceOnUse">
<stop offset="0.00905059" stop-color="#31A666"/>
<stop offset="1" stop-color="#D8D70C"/>
</linearGradient>
<linearGradient id="paint2_linear" x1="62.5912" y1="62.1352" x2="19.2449" y2="5.53795" gradientUnits="userSpaceOnUse">
<stop stop-color="#38A762"/>
<stop offset="1" stop-color="#3FA1D5"/>
</linearGradient>
<clipPath id="clip0">
<rect width="78.2135" height="81" fill="white" transform="translate(0.799469)"/>
</clipPath>
</defs>
</svg>
